<?xml version="1.0" encoding="UTF-8" standalone="no"?>
<svg
   xmlns:dc="http://purl.org/dc/elements/1.1/"
   xmlns:cc="http://creativecommons.org/ns#"
   xmlns:rdf="http://www.w3.org/1999/02/22-rdf-syntax-ns#"
   xmlns:svg="http://www.w3.org/2000/svg"
   xmlns="http://www.w3.org/2000/svg"
   viewBox="0 0 114.55375 146.41499"
   height="146.41499"
   width="114.55375"
   xml:space="preserve"
   version="1.1"
   id="svg2"><metadata
     id="metadata8"><rdf:RDF><cc:Work
         rdf:about=""><dc:format>image/svg+xml</dc:format><dc:type
           rdf:resource="http://purl.org/dc/dcmitype/StillImage" /><dc:title></dc:title></cc:Work></rdf:RDF></metadata><defs
     id="defs6" /><g
     transform="matrix(1.25,0,0,-1.25,0,146.415)"
     id="g10"><g
       transform="translate(5.481,-5.644)"
       id="g12"><g
         id="g14"><g
           id="g16"><g
             id="g18"><path
               id="path20"
               style="fill:#000000;fill-opacity:1;fill-rule:nonzero;stroke:#000000;stroke-width:0.3985;stroke-linecap:butt;stroke-linejoin:miter;stroke-miterlimit:10;stroke-dasharray:none;stroke-opacity:1"
               d="m 68.15889,102.36617 c 0,0.78282 -0.6346,1.41741 -1.41742,1.41741 -0.78284,0 -1.41742,-0.63459 -1.41742,-1.41741 0,-0.78283 0.63458,-1.41742 1.41742,-1.41742 0.78282,0 1.41742,0.63459 1.41742,1.41742 z" /></g><g
             id="g22"><path
               id="path24"
               style="fill:#000000;fill-opacity:1;fill-rule:nonzero;stroke:#000000;stroke-width:0.3985;stroke-linecap:butt;stroke-linejoin:miter;stroke-miterlimit:10;stroke-dasharray:none;stroke-opacity:1"
               d="m 18.167,79.89018 c 0,0.78284 -0.63458,1.41742 -1.41741,1.41742 -0.78282,0 -1.41742,-0.63458 -1.41742,-1.41742 0,-0.78282 0.6346,-1.4174 1.41742,-1.4174 0.78283,0 1.41741,0.63458 1.41741,1.4174 z" /></g><g
             id="g26"><path
               id="path28"
               style="fill:#000000;fill-opacity:1;fill-rule:nonzero;stroke:#000000;stroke-width:0.3985;stroke-linecap:butt;stroke-linejoin:miter;stroke-miterlimit:10;stroke-dasharray:none;stroke-opacity:1"
               d="m 48.01082,50.82018 c 0,0.78282 -0.6346,1.41742 -1.41742,1.41742 -0.78282,0 -1.41742,-0.6346 -1.41742,-1.41742 0,-0.78283 0.6346,-1.41742 1.41742,-1.41742 0.78282,0 1.41742,0.63459 1.41742,1.41742 z" /></g><g
             id="g30"><path
               id="path32"
               style="fill:#000000;fill-opacity:1;fill-rule:nonzero;stroke:#000000;stroke-width:0.3985;stroke-linecap:butt;stroke-linejoin:miter;stroke-miterlimit:10;stroke-dasharray:none;stroke-opacity:1"
               d="m 15.55879,43.02107 c 0,0.78283 -0.63459,1.41742 -1.41742,1.41742 -0.78282,0 -1.41742,-0.63459 -1.41742,-1.41742 0,-0.78282 0.6346,-1.41742 1.41742,-1.41742 0.78283,0 1.41742,0.6346 1.41742,1.41742 z" /></g><g
             id="g34"><path
               id="path36"
               style="fill:#000000;fill-opacity:1;fill-rule:nonzero;stroke:#000000;stroke-width:0.3985;stroke-linecap:butt;stroke-linejoin:miter;stroke-miterlimit:10;stroke-dasharray:none;stroke-opacity:1"
               d="m 60.18245,105.52887 c 0,0.78283 -0.63458,1.41742 -1.41742,1.41742 -0.78282,0 -1.41742,-0.63459 -1.41742,-1.41742 0,-0.78282 0.6346,-1.41742 1.41742,-1.41742 0.78284,0 1.41742,0.6346 1.41742,1.41742 z" /></g><g
             id="g38"><path
               id="path40"
               style="fill:#000000;fill-opacity:1;fill-rule:nonzero;stroke:#000000;stroke-width:0.3985;stroke-linecap:butt;stroke-linejoin:miter;stroke-miterlimit:10;stroke-dasharray:none;stroke-opacity:1"
               d="m 77.84297,89.06735 c 0,0.78282 -0.6346,1.41742 -1.41742,1.41742 -0.78282,0 -1.41742,-0.6346 -1.41742,-1.41742 0,-0.78282 0.6346,-1.41742 1.41742,-1.41742 0.78282,0 1.41742,0.6346 1.41742,1.41742 z" /></g><g
             id="g42"><path
               id="path44"
               style="fill:#000000;fill-opacity:1;fill-rule:nonzero;stroke:#000000;stroke-width:0.3985;stroke-linecap:butt;stroke-linejoin:miter;stroke-miterlimit:10;stroke-dasharray:none;stroke-opacity:1"
               d="m 81.51132,55.77274 c 0,0.78282 -0.63458,1.41742 -1.4174,1.41742 -0.78284,0 -1.41742,-0.6346 -1.41742,-1.41742 0,-0.78283 0.63458,-1.41742 1.41742,-1.41742 0.78282,0 1.4174,0.63459 1.4174,1.41742 z" /></g><g
             id="g46"><path
               id="path48"
               style="fill:#000000;fill-opacity:1;fill-rule:nonzero;stroke:#000000;stroke-width:0.3985;stroke-linecap:butt;stroke-linejoin:miter;stroke-miterlimit:10;stroke-dasharray:none;stroke-opacity:1"
               d="m 50.28944,40.33286 c 0,0.78282 -0.63459,1.4174 -1.41742,1.4174 -0.78282,0 -1.41742,-0.63458 -1.41742,-1.4174 0,-0.78284 0.6346,-1.41742 1.41742,-1.41742 0.78283,0 1.41742,0.63458 1.41742,1.41742 z" /></g><g
             id="g50"><path
               id="path52"
               style="fill:#000000;fill-opacity:1;fill-rule:nonzero;stroke:#000000;stroke-width:0.3985;stroke-linecap:butt;stroke-linejoin:miter;stroke-miterlimit:10;stroke-dasharray:none;stroke-opacity:1"
               d="m 61.65523,60.92166 c 0,0.78282 -0.63458,1.41742 -1.41741,1.41742 -0.78283,0 -1.41742,-0.6346 -1.41742,-1.41742 0,-0.78282 0.63459,-1.41742 1.41742,-1.41742 0.78283,0 1.41741,0.6346 1.41741,1.41742 z" /></g><g
             id="g54"><path
               id="path56"
               style="fill:#000000;fill-opacity:1;fill-rule:nonzero;stroke:#000000;stroke-width:0.3985;stroke-linecap:butt;stroke-linejoin:miter;stroke-miterlimit:10;stroke-dasharray:none;stroke-opacity:1"
               d="m 66.69907,56.60493 c 0,0.78284 -0.63459,1.41742 -1.41742,1.41742 -0.78282,0 -1.41742,-0.63458 -1.41742,-1.41742 0,-0.78282 0.6346,-1.41741 1.41742,-1.41741 0.78283,0 1.41742,0.63459 1.41742,1.41741 z" /></g><g
             id="g58"><path
               id="path60"
               style="fill:#000000;fill-opacity:1;fill-rule:nonzero;stroke:#000000;stroke-width:0.3985;stroke-linecap:butt;stroke-linejoin:miter;stroke-miterlimit:10;stroke-dasharray:none;stroke-opacity:1"
               d="m 11.93068,49.34045 c 0,0.78284 -0.6346,1.41742 -1.41742,1.41742 -0.78284,0 -1.41742,-0.63458 -1.41742,-1.41742 0,-0.78282 0.63458,-1.4174 1.41742,-1.4174 0.78282,0 1.41742,0.63458 1.41742,1.4174 z" /></g><g
             id="g62"><path
               id="path64"
               style="fill:#000000;fill-opacity:1;fill-rule:nonzero;stroke:#000000;stroke-width:0.3985;stroke-linecap:butt;stroke-linejoin:miter;stroke-miterlimit:10;stroke-dasharray:none;stroke-opacity:1"
               d="m 72.7161,42.1387 c 0,0.78284 -0.63459,1.41742 -1.41741,1.41742 -0.78284,0 -1.41742,-0.63458 -1.41742,-1.41742 0,-0.78282 0.63458,-1.41742 1.41742,-1.41742 0.78282,0 1.41741,0.6346 1.41741,1.41742 z" /></g><g
             id="g66"><path
               id="path68"
               style="fill:#000000;fill-opacity:1;fill-rule:nonzero;stroke:#000000;stroke-width:0.3985;stroke-linecap:butt;stroke-linejoin:miter;stroke-miterlimit:10;stroke-dasharray:none;stroke-opacity:1"
               d="m 26.13565,48.29631 c 0,0.78282 -0.6346,1.41742 -1.41742,1.41742 -0.78283,0 -1.41742,-0.6346 -1.41742,-1.41742 0,-0.78282 0.63459,-1.41742 1.41742,-1.41742 0.78282,0 1.41742,0.6346 1.41742,1.41742 z" /></g><g
             id="g70"><path
               id="path72"
               style="fill:#000000;fill-opacity:1;fill-rule:nonzero;stroke:#000000;stroke-width:0.3985;stroke-linecap:butt;stroke-linejoin:miter;stroke-miterlimit:10;stroke-dasharray:none;stroke-opacity:1"
               d="m 11.89694,46.07176 c 0,0.78282 -0.6346,1.41742 -1.41742,1.41742 -0.78282,0 -1.41742,-0.6346 -1.41742,-1.41742 0,-0.78282 0.6346,-1.41742 1.41742,-1.41742 0.78282,0 1.41742,0.6346 1.41742,1.41742 z" /></g><g
             id="g74"><path
               id="path76"
               style="fill:#000000;fill-opacity:1;fill-rule:nonzero;stroke:#000000;stroke-width:0.3985;stroke-linecap:butt;stroke-linejoin:miter;stroke-miterlimit:10;stroke-dasharray:none;stroke-opacity:1"
               d="m 19.17265,68.13164 c 0,0.78283 -0.63459,1.41742 -1.41742,1.41742 -0.78282,0 -1.41742,-0.63459 -1.41742,-1.41742 0,-0.78282 0.6346,-1.41742 1.41742,-1.41742 0.78283,0 1.41742,0.6346 1.41742,1.41742 z" /></g><g
             id="g78"><path
               id="path80"
               style="fill:#000000;fill-opacity:1;fill-rule:nonzero;stroke:#000000;stroke-width:0.3985;stroke-linecap:butt;stroke-linejoin:miter;stroke-miterlimit:10;stroke-dasharray:none;stroke-opacity:1"
               d="m 20.35867,15.93901 c 0,0.78282 -0.63458,1.41742 -1.4174,1.41742 -0.78284,0 -1.41742,-0.6346 -1.41742,-1.41742 0,-0.78282 0.63458,-1.41742 1.41742,-1.41742 0.78282,0 1.4174,0.6346 1.4174,1.41742 z" /></g><g
             id="g82"><path
               id="path84"
               style="fill:#000000;fill-opacity:1;fill-rule:nonzero;stroke:#000000;stroke-width:0.3985;stroke-linecap:butt;stroke-linejoin:miter;stroke-miterlimit:10;stroke-dasharray:none;stroke-opacity:1"
               d="m 47.82397,67.79945 c 0,0.78283 -0.63459,1.41741 -1.41741,1.41741 -0.78283,0 -1.41742,-0.63458 -1.41742,-1.41741 0,-0.78283 0.63459,-1.41742 1.41742,-1.41742 0.78282,0 1.41741,0.63459 1.41741,1.41742 z" /></g><g
             id="g86"><path
               id="path88"
               style="fill:#000000;fill-opacity:1;fill-rule:nonzero;stroke:#000000;stroke-width:0.3985;stroke-linecap:butt;stroke-linejoin:miter;stroke-miterlimit:10;stroke-dasharray:none;stroke-opacity:1"
               d="m 83.42012,66.47069 c 0,0.78282 -0.6346,1.41741 -1.41742,1.41741 -0.78282,0 -1.41742,-0.63459 -1.41742,-1.41741 0,-0.78282 0.6346,-1.41742 1.41742,-1.41742 0.78282,0 1.41742,0.6346 1.41742,1.41742 z" /></g><g
             id="g90"><path
               id="path92"
               style="fill:#000000;fill-opacity:1;fill-rule:nonzero;stroke:#000000;stroke-width:0.3985;stroke-linecap:butt;stroke-linejoin:miter;stroke-miterlimit:10;stroke-dasharray:none;stroke-opacity:1"
               d="m 18.88329,9.14168 c 0,0.78282 -0.6346,1.4174 -1.41742,1.4174 -0.78283,0 -1.41742,-0.63458 -1.41742,-1.4174 0,-0.78284 0.63459,-1.41742 1.41742,-1.41742 0.78282,0 1.41742,0.63458 1.41742,1.41742 z" /></g><g
             id="g94"><path
               id="path96"
               style="fill:#000000;fill-opacity:1;fill-rule:nonzero;stroke:#000000;stroke-width:0.3985;stroke-linecap:butt;stroke-linejoin:miter;stroke-miterlimit:10;stroke-dasharray:none;stroke-opacity:1"
               d="m 58.78232,97.42094 c 0,0.78283 -0.6346,1.41742 -1.41742,1.41742 -0.78282,0 -1.41742,-0.63459 -1.41742,-1.41742 0,-0.78282 0.6346,-1.41742 1.41742,-1.41742 0.78282,0 1.41742,0.6346 1.41742,1.41742 z" /></g><g
             id="g98"><path
               id="path100"
               style="fill:#000000;fill-opacity:1;fill-rule:nonzero;stroke:#000000;stroke-width:0.3985;stroke-linecap:butt;stroke-linejoin:miter;stroke-miterlimit:10;stroke-dasharray:none;stroke-opacity:1"
               d="m 73.22865,120.39433 c 0,0.78284 -0.63459,1.41742 -1.41742,1.41742 -0.78282,0 -1.41742,-0.63458 -1.41742,-1.41742 0,-0.78282 0.6346,-1.4174 1.41742,-1.4174 0.78283,0 1.41742,0.63458 1.41742,1.4174 z" /></g><g
             id="g102"><path
               id="path104"
               style="fill:#000000;fill-opacity:1;fill-rule:nonzero;stroke:#000000;stroke-width:0.3985;stroke-linecap:butt;stroke-linejoin:miter;stroke-miterlimit:10;stroke-dasharray:none;stroke-opacity:1"
               d="m 58.49165,74.27153 c 0,0.78282 -0.63458,1.4174 -1.41742,1.4174 -0.78282,0 -1.41742,-0.63458 -1.41742,-1.4174 0,-0.78283 0.6346,-1.41742 1.41742,-1.41742 0.78284,0 1.41742,0.63459 1.41742,1.41742 z" /></g><g
             id="g106"><path
               id="path108"
               style="fill:#000000;fill-opacity:1;fill-rule:nonzero;stroke:#000000;stroke-width:0.3985;stroke-linecap:butt;stroke-linejoin:miter;stroke-miterlimit:10;stroke-dasharray:none;stroke-opacity:1"
               d="m 43.47177,100.69916 c 0,0.78282 -0.6346,1.41742 -1.41742,1.41742 -0.78282,0 -1.41742,-0.6346 -1.41742,-1.41742 0,-0.78282 0.6346,-1.41742 1.41742,-1.41742 0.78282,0 1.41742,0.6346 1.41742,1.41742 z" /></g><g
             id="g110"><path
               id="path112"
               style="fill:#000000;fill-opacity:1;fill-rule:nonzero;stroke:#000000;stroke-width:0.3985;stroke-linecap:butt;stroke-linejoin:miter;stroke-miterlimit:10;stroke-dasharray:none;stroke-opacity:1"
               d="m 46.19806,49.46245 c 0,0.78282 -0.6346,1.4174 -1.41742,1.4174 -0.78282,0 -1.41742,-0.63458 -1.41742,-1.4174 0,-0.78284 0.6346,-1.41742 1.41742,-1.41742 0.78282,0 1.41742,0.63458 1.41742,1.41742 z" /></g><g
             id="g114"><path
               id="path116"
               style="fill:#000000;fill-opacity:1;fill-rule:nonzero;stroke:#000000;stroke-width:0.3985;stroke-linecap:butt;stroke-linejoin:miter;stroke-miterlimit:10;stroke-dasharray:none;stroke-opacity:1"
               d="m 73.92029,36.50056 c 0,0.78283 -0.6346,1.41742 -1.41742,1.41742 -0.78284,0 -1.41742,-0.63459 -1.41742,-1.41742 0,-0.78282 0.63458,-1.41741 1.41742,-1.41741 0.78282,0 1.41742,0.63459 1.41742,1.41741 z" /></g><g
             id="g118"><path
               id="path120"
               style="fill:#000000;fill-opacity:1;fill-rule:nonzero;stroke:#000000;stroke-width:0.3985;stroke-linecap:butt;stroke-linejoin:miter;stroke-miterlimit:10;stroke-dasharray:none;stroke-opacity:1"
               d="m 59.20795,104.55263 c 0,0.78283 -0.6346,1.41742 -1.41742,1.41742 -0.78283,0 -1.41742,-0.63459 -1.41742,-1.41742 0,-0.78283 0.63459,-1.41742 1.41742,-1.41742 0.78282,0 1.41742,0.63459 1.41742,1.41742 z" /></g><g
             id="g122"><path
               id="path124"
               style="fill:#000000;fill-opacity:1;fill-rule:nonzero;stroke:#000000;stroke-width:0.3985;stroke-linecap:butt;stroke-linejoin:miter;stroke-miterlimit:10;stroke-dasharray:none;stroke-opacity:1"
               d="m 45.3131,73.2931 c 0,0.78283 -0.6346,1.41743 -1.41742,1.41743 -0.78283,0 -1.41742,-0.6346 -1.41742,-1.41743 0,-0.78282 0.63459,-1.41741 1.41742,-1.41741 0.78282,0 1.41742,0.63459 1.41742,1.41741 z" /></g><g
             id="g126"><path
               id="path128"
               style="fill:#000000;fill-opacity:1;fill-rule:nonzero;stroke:#000000;stroke-width:0.3985;stroke-linecap:butt;stroke-linejoin:miter;stroke-miterlimit:10;stroke-dasharray:none;stroke-opacity:1"
               d="m 37.17575,45.38576 c 0,0.78282 -0.6346,1.41742 -1.41742,1.41742 -0.78282,0 -1.41742,-0.6346 -1.41742,-1.41742 0,-0.78282 0.6346,-1.41742 1.41742,-1.41742 0.78282,0 1.41742,0.6346 1.41742,1.41742 z" /></g><g
             id="g130"><path
               id="path132"
               style="fill:#000000;fill-opacity:1;fill-rule:nonzero;stroke:#000000;stroke-width:0.3985;stroke-linecap:butt;stroke-linejoin:miter;stroke-miterlimit:10;stroke-dasharray:none;stroke-opacity:1"
               d="m 70.41284,86.93018 c 0,0.78283 -0.6346,1.41742 -1.41742,1.41742 -0.78283,0 -1.41742,-0.63459 -1.41742,-1.41742 0,-0.78283 0.63459,-1.41742 1.41742,-1.41742 0.78282,0 1.41742,0.63459 1.41742,1.41742 z" /></g><g
             id="g134"><path
               id="path136"
               style="fill:#000000;fill-opacity:1;fill-rule:nonzero;stroke:#000000;stroke-width:0.3985;stroke-linecap:butt;stroke-linejoin:miter;stroke-miterlimit:10;stroke-dasharray:none;stroke-opacity:1"
               d="m 77.53285,47.6886 c 0,0.78282 -0.6346,1.41742 -1.41742,1.41742 -0.78282,0 -1.41742,-0.6346 -1.41742,-1.41742 0,-0.78282 0.6346,-1.41742 1.41742,-1.41742 0.78282,0 1.41742,0.6346 1.41742,1.41742 z" /></g><g
             id="g138"><path
               id="path140"
               style="fill:#000000;fill-opacity:1;fill-rule:nonzero;stroke:#000000;stroke-width:0.3985;stroke-linecap:butt;stroke-linejoin:miter;stroke-miterlimit:10;stroke-dasharray:none;stroke-opacity:1"
               d="m 22.25319,81.85262 c 0,0.78282 -0.63459,1.41741 -1.41741,1.41741 -0.78283,0 -1.41741,-0.63459 -1.41741,-1.41741 0,-0.78282 0.63458,-1.41742 1.41741,-1.41742 0.78282,0 1.41741,0.6346 1.41741,1.41742 z" /></g><g
             id="g142"><path
               id="path144"
               style="fill:#000000;fill-opacity:1;fill-rule:nonzero;stroke:#000000;stroke-width:0.3985;stroke-linecap:butt;stroke-linejoin:miter;stroke-miterlimit:10;stroke-dasharray:none;stroke-opacity:1"
               d="m 13.83946,41.90167 c 0,0.78284 -0.6346,1.41742 -1.41742,1.41742 -0.78282,0 -1.41742,-0.63458 -1.41742,-1.41742 0,-0.78282 0.6346,-1.41742 1.41742,-1.41742 0.78282,0 1.41742,0.6346 1.41742,1.41742 z" /></g><g
             id="g146"><path
               id="path148"
               style="fill:#000000;fill-opacity:1;fill-rule:nonzero;stroke:#000000;stroke-width:0.3985;stroke-linecap:butt;stroke-linejoin:miter;stroke-miterlimit:10;stroke-dasharray:none;stroke-opacity:1"
               d="m 15.1319,8.59322 c 0,0.78282 -0.6346,1.41742 -1.41742,1.41742 -0.78284,0 -1.41742,-0.6346 -1.41742,-1.41742 0,-0.78282 0.63458,-1.41742 1.41742,-1.41742 0.78282,0 1.41742,0.6346 1.41742,1.41742 z" /></g><g
             id="g150"><path
               id="path152"
               style="fill:#000000;fill-opacity:1;fill-rule:nonzero;stroke:#000000;stroke-width:0.3985;stroke-linecap:butt;stroke-linejoin:miter;stroke-miterlimit:10;stroke-dasharray:none;stroke-opacity:1"
               d="m 18.25653,88.95964 c 0,0.78284 -0.63458,1.41742 -1.41742,1.41742 -0.78282,0 -1.41741,-0.63458 -1.41741,-1.41742 0,-0.78282 0.63459,-1.41742 1.41741,-1.41742 0.78284,0 1.41742,0.6346 1.41742,1.41742 z" /></g><g
             id="g154"><path
               id="path156"
               style="fill:#000000;fill-opacity:1;fill-rule:nonzero;stroke:#000000;stroke-width:0.3985;stroke-linecap:butt;stroke-linejoin:miter;stroke-miterlimit:10;stroke-dasharray:none;stroke-opacity:1"
               d="m 76.89961,106.50424 c 0,0.78284 -0.6346,1.41742 -1.41741,1.41742 -0.78283,0 -1.41743,-0.63458 -1.41743,-1.41742 0,-0.78282 0.6346,-1.41742 1.41743,-1.41742 0.78281,0 1.41741,0.6346 1.41741,1.41742 z" /></g><g
             id="g158"><path
               id="path160"
               style="fill:#000000;fill-opacity:1;fill-rule:nonzero;stroke:#000000;stroke-width:0.3985;stroke-linecap:butt;stroke-linejoin:miter;stroke-miterlimit:10;stroke-dasharray:none;stroke-opacity:1"
               d="m 68.29512,46.1825 c 0,0.78282 -0.63458,1.41741 -1.41742,1.41741 -0.78282,0 -1.41742,-0.63459 -1.41742,-1.41741 0,-0.78283 0.6346,-1.41742 1.41742,-1.41742 0.78284,0 1.41742,0.63459 1.41742,1.41742 z" /></g><g
             id="g162"><path
               id="path164"
               style="fill:#000000;fill-opacity:1;fill-rule:nonzero;stroke:#000000;stroke-width:0.3985;stroke-linecap:butt;stroke-linejoin:miter;stroke-miterlimit:10;stroke-dasharray:none;stroke-opacity:1"
               d="m 53.16884,82.09743 c 0,0.78282 -0.6346,1.41742 -1.41742,1.41742 -0.78282,0 -1.41742,-0.6346 -1.41742,-1.41742 0,-0.78283 0.6346,-1.41742 1.41742,-1.41742 0.78282,0 1.41742,0.63459 1.41742,1.41742 z" /></g><g
             id="g166"><path
               id="path168"
               style="fill:#000000;fill-opacity:1;fill-rule:nonzero;stroke:#000000;stroke-width:0.3985;stroke-linecap:butt;stroke-linejoin:miter;stroke-miterlimit:10;stroke-dasharray:none;stroke-opacity:1"
               d="m 37.73114,87.75415 c 0,0.78284 -0.6346,1.41742 -1.41742,1.41742 -0.78282,0 -1.41742,-0.63458 -1.41742,-1.41742 0,-0.78282 0.6346,-1.4174 1.41742,-1.4174 0.78282,0 1.41742,0.63458 1.41742,1.4174 z" /></g><g
             id="g170"><path
               id="path172"
               style="fill:#000000;fill-opacity:1;fill-rule:nonzero;stroke:#000000;stroke-width:0.3985;stroke-linecap:butt;stroke-linejoin:miter;stroke-miterlimit:10;stroke-dasharray:none;stroke-opacity:1"
               d="m 81.08182,43.95969 c 0,0.78283 -0.6346,1.41741 -1.41742,1.41741 -0.78284,0 -1.41742,-0.63458 -1.41742,-1.41741 0,-0.78283 0.63458,-1.41742 1.41742,-1.41742 0.78282,0 1.41742,0.63459 1.41742,1.41742 z" /></g><g
             id="g174"><path
               id="path176"
               style="fill:#000000;fill-opacity:1;fill-rule:nonzero;stroke:#000000;stroke-width:0.3985;stroke-linecap:butt;stroke-linejoin:miter;stroke-miterlimit:10;stroke-dasharray:none;stroke-opacity:1"
               d="m 83.71727,116.99545 c 0,0.78282 -0.63458,1.41742 -1.41742,1.41742 -0.78282,0 -1.41742,-0.6346 -1.41742,-1.41742 0,-0.78282 0.6346,-1.41742 1.41742,-1.41742 0.78284,0 1.41742,0.6346 1.41742,1.41742 z" /></g><g
             id="g178"><path
               id="path180"
               style="fill:#000000;fill-opacity:1;fill-rule:nonzero;stroke:#000000;stroke-width:0.3985;stroke-linecap:butt;stroke-linejoin:miter;stroke-miterlimit:10;stroke-dasharray:none;stroke-opacity:1"
               d="m 41.84845,22.62259 c 0,0.78282 -0.63458,1.41742 -1.41742,1.41742 -0.78282,0 -1.4174,-0.6346 -1.4174,-1.41742 0,-0.78282 0.63458,-1.41742 1.4174,-1.41742 0.78284,0 1.41742,0.6346 1.41742,1.41742 z" /></g><g
             id="g182"><path
               id="path184"
               style="fill:#000000;fill-opacity:1;fill-rule:nonzero;stroke:#000000;stroke-width:0.3985;stroke-linecap:butt;stroke-linejoin:miter;stroke-miterlimit:10;stroke-dasharray:none;stroke-opacity:1"
               d="m 51.92703,69.42407 c 0,0.78283 -0.6346,1.41742 -1.41742,1.41742 -0.78282,0 -1.41741,-0.63459 -1.41741,-1.41742 0,-0.78283 0.63459,-1.41742 1.41741,-1.41742 0.78282,0 1.41742,0.63459 1.41742,1.41742 z" /></g><g
             id="g186"><path
               id="path188"
               style="fill:#000000;fill-opacity:1;fill-rule:nonzero;stroke:#000000;stroke-width:0.3985;stroke-linecap:butt;stroke-linejoin:miter;stroke-miterlimit:10;stroke-dasharray:none;stroke-opacity:1"
               d="m 11.79053,74.70232 c 0,0.78282 -0.6346,1.41742 -1.41742,1.41742 -0.78282,0 -1.41742,-0.6346 -1.41742,-1.41742 0,-0.78282 0.6346,-1.41742 1.41742,-1.41742 0.78282,0 1.41742,0.6346 1.41742,1.41742 z" /></g><g
             id="g190"><path
               id="path192"
               style="fill:#000000;fill-opacity:1;fill-rule:nonzero;stroke:#000000;stroke-width:0.3985;stroke-linecap:butt;stroke-linejoin:miter;stroke-miterlimit:10;stroke-dasharray:none;stroke-opacity:1"
               d="m 66.5057,74.35976 c 0,0.78282 -0.63458,1.41742 -1.4174,1.41742 -0.78283,0 -1.41742,-0.6346 -1.41742,-1.41742 0,-0.78283 0.63459,-1.41742 1.41742,-1.41742 0.78282,0 1.4174,0.63459 1.4174,1.41742 z" /></g><g
             id="g194"><path
               id="path196"
               style="fill:#000000;fill-opacity:1;fill-rule:nonzero;stroke:#000000;stroke-width:0.3985;stroke-linecap:butt;stroke-linejoin:miter;stroke-miterlimit:10;stroke-dasharray:none;stroke-opacity:1"
               d="m 85.19786,56.80217 c 0,0.78282 -0.6346,1.41742 -1.41742,1.41742 -0.78284,0 -1.41742,-0.6346 -1.41742,-1.41742 0,-0.78282 0.63458,-1.41742 1.41742,-1.41742 0.78282,0 1.41742,0.6346 1.41742,1.41742 z" /></g><g
             id="g198"><path
               id="path200"
               style="fill:#000000;fill-opacity:1;fill-rule:nonzero;stroke:#000000;stroke-width:0.3985;stroke-linecap:butt;stroke-linejoin:miter;stroke-miterlimit:10;stroke-dasharray:none;stroke-opacity:1"
               d="m 30.6786,49.82317 c 0,0.78282 -0.6346,1.41742 -1.41742,1.41742 -0.78282,0 -1.41741,-0.6346 -1.41741,-1.41742 0,-0.78283 0.63459,-1.41742 1.41741,-1.41742 0.78282,0 1.41742,0.63459 1.41742,1.41742 z" /></g><g
             id="g202"><path
               id="path204"
               style="fill:#000000;fill-opacity:1;fill-rule:nonzero;stroke:#000000;stroke-width:0.3985;stroke-linecap:butt;stroke-linejoin:miter;stroke-miterlimit:10;stroke-dasharray:none;stroke-opacity:1"
               d="m 9.55992,46.66522 c 0,0.78282 -0.63458,1.41741 -1.41742,1.41741 -0.78282,0 -1.41742,-0.63459 -1.41742,-1.41741 0,-0.78283 0.6346,-1.41742 1.41742,-1.41742 0.78284,0 1.41742,0.63459 1.41742,1.41742 z" /></g><g
             id="g206"><path
               id="path208"
               style="fill:#000000;fill-opacity:1;fill-rule:nonzero;stroke:#000000;stroke-width:0.3985;stroke-linecap:butt;stroke-linejoin:miter;stroke-miterlimit:10;stroke-dasharray:none;stroke-opacity:1"
               d="m 27.58899,92.50731 c 0,0.78284 -0.6346,1.41742 -1.41742,1.41742 -0.78284,0 -1.41742,-0.63458 -1.41742,-1.41742 0,-0.78282 0.63458,-1.41741 1.41742,-1.41741 0.78282,0 1.41742,0.63459 1.41742,1.41741 z" /></g><g
             id="g210"><path
               id="path212"
               style="fill:#000000;fill-opacity:1;fill-rule:nonzero;stroke:#000000;stroke-width:0.3985;stroke-linecap:butt;stroke-linejoin:miter;stroke-miterlimit:10;stroke-dasharray:none;stroke-opacity:1"
               d="m 11.2053,62.46237 c 0,0.78283 -0.63458,1.41742 -1.41741,1.41742 -0.78282,0 -1.41742,-0.63459 -1.41742,-1.41742 0,-0.78284 0.6346,-1.41742 1.41742,-1.41742 0.78283,0 1.41741,0.63458 1.41741,1.41742 z" /></g><g
             id="g214"><path
               id="path216"
               style="fill:#000000;fill-opacity:1;fill-rule:nonzero;stroke:#000000;stroke-width:0.3985;stroke-linecap:butt;stroke-linejoin:miter;stroke-miterlimit:10;stroke-dasharray:none;stroke-opacity:1"
               d="m 68.84662,36.52911 c 0,0.78283 -0.63458,1.41742 -1.41742,1.41742 -0.78282,0 -1.41742,-0.63459 -1.41742,-1.41742 0,-0.78282 0.6346,-1.41741 1.41742,-1.41741 0.78284,0 1.41742,0.63459 1.41742,1.41741 z" /></g><g
             id="g218"><path
               id="path220"
               style="fill:#000000;fill-opacity:1;fill-rule:nonzero;stroke:#000000;stroke-width:0.3985;stroke-linecap:butt;stroke-linejoin:miter;stroke-miterlimit:10;stroke-dasharray:none;stroke-opacity:1"
               d="m 74.15645,75.38226 c 0,0.78284 -0.6346,1.41742 -1.41742,1.41742 -0.78283,0 -1.41742,-0.63458 -1.41742,-1.41742 0,-0.78282 0.63459,-1.4174 1.41742,-1.4174 0.78282,0 1.41742,0.63458 1.41742,1.4174 z" /></g><g
             id="g222"><path
               id="path224"
               style="fill:#000000;fill-opacity:1;fill-rule:nonzero;stroke:#000000;stroke-width:0.3985;stroke-linecap:butt;stroke-linejoin:miter;stroke-miterlimit:10;stroke-dasharray:none;stroke-opacity:1"
               d="m 66.36816,87.162 c 0,0.78284 -0.63458,1.41742 -1.41742,1.41742 -0.78282,0 -1.41741,-0.63458 -1.41741,-1.41742 0,-0.78282 0.63459,-1.4174 1.41741,-1.4174 0.78284,0 1.41742,0.63458 1.41742,1.4174 z" /></g><g
             id="g226"><path
               id="path228"
               style="fill:#000000;fill-opacity:1;fill-rule:nonzero;stroke:#000000;stroke-width:0.3985;stroke-linecap:butt;stroke-linejoin:miter;stroke-miterlimit:10;stroke-dasharray:none;stroke-opacity:1"
               d="m 50.83704,82.2341 c 0,0.78284 -0.6346,1.41742 -1.41742,1.41742 -0.78282,0 -1.41742,-0.63458 -1.41742,-1.41742 0,-0.78282 0.6346,-1.4174 1.41742,-1.4174 0.78282,0 1.41742,0.63458 1.41742,1.4174 z" /></g><g
             id="g230"><path
               id="path232"
               style="fill:#000000;fill-opacity:1;fill-rule:nonzero;stroke:#000000;stroke-width:0.3985;stroke-linecap:butt;stroke-linejoin:miter;stroke-miterlimit:10;stroke-dasharray:none;stroke-opacity:1"
               d="m 74.778,111.79765 c 0,0.78282 -0.63458,1.41742 -1.4174,1.41742 -0.78284,0 -1.41742,-0.6346 -1.41742,-1.41742 0,-0.78282 0.63458,-1.41742 1.41742,-1.41742 0.78282,0 1.4174,0.6346 1.4174,1.41742 z" /></g><g
             id="g234"><path
               id="path236"
               style="fill:#000000;fill-opacity:1;fill-rule:nonzero;stroke:#000000;stroke-width:0.3985;stroke-linecap:butt;stroke-linejoin:miter;stroke-miterlimit:10;stroke-dasharray:none;stroke-opacity:1"
               d="m 58.40082,78.98315 c 0,0.78283 -0.63458,1.41741 -1.41741,1.41741 -0.78283,0 -1.41741,-0.63458 -1.41741,-1.41741 0,-0.78283 0.63458,-1.41742 1.41741,-1.41742 0.78283,0 1.41741,0.63459 1.41741,1.41742 z" /></g><g
             id="g238"><path
               id="path240"
               style="fill:#000000;fill-opacity:1;fill-rule:nonzero;stroke:#000000;stroke-width:0.3985;stroke-linecap:butt;stroke-linejoin:miter;stroke-miterlimit:10;stroke-dasharray:none;stroke-opacity:1"
               d="m 31.1587,65.92526 c 0,0.78282 -0.63458,1.41741 -1.4174,1.41741 -0.78283,0 -1.41742,-0.63459 -1.41742,-1.41741 0,-0.78283 0.63459,-1.41742 1.41742,-1.41742 0.78282,0 1.4174,0.63459 1.4174,1.41742 z" /></g><g
             id="g242"><path
               id="path244"
               style="fill:#000000;fill-opacity:1;fill-rule:nonzero;stroke:#000000;stroke-width:0.3985;stroke-linecap:butt;stroke-linejoin:miter;stroke-miterlimit:10;stroke-dasharray:none;stroke-opacity:1"
               d="m 39.49199,75.23824 c 0,0.78282 -0.63459,1.41741 -1.41741,1.41741 -0.78283,0 -1.41741,-0.63459 -1.41741,-1.41741 0,-0.78284 0.63458,-1.41742 1.41741,-1.41742 0.78282,0 1.41741,0.63458 1.41741,1.41742 z" /></g><g
             id="g246"><path
               id="path248"
               style="fill:#000000;fill-opacity:1;fill-rule:nonzero;stroke:#000000;stroke-width:0.3985;stroke-linecap:butt;stroke-linejoin:miter;stroke-miterlimit:10;stroke-dasharray:none;stroke-opacity:1"
               d="m 1.6406,50.9469 c 0,0.78282 -0.6346,1.41742 -1.41742,1.41742 -0.78281,0 -1.41741,-0.6346 -1.41741,-1.41742 0,-0.78282 0.6346,-1.41742 1.41741,-1.41742 0.78282,0 1.41742,0.6346 1.41742,1.41742 z" /></g><g
             id="g250"><path
               id="path252"
               style="fill:#000000;fill-opacity:1;fill-rule:nonzero;stroke:#000000;stroke-width:0.3985;stroke-linecap:butt;stroke-linejoin:miter;stroke-miterlimit:10;stroke-dasharray:none;stroke-opacity:1"
               d="m 51.93092,36.51874 c 0,0.78282 -0.63459,1.4174 -1.41742,1.4174 -0.78282,0 -1.41742,-0.63458 -1.41742,-1.4174 0,-0.78284 0.6346,-1.41742 1.41742,-1.41742 0.78283,0 1.41742,0.63458 1.41742,1.41742 z" /></g><g
             id="g254"><path
               id="path256"
               style="fill:#000000;fill-opacity:1;fill-rule:nonzero;stroke:#000000;stroke-width:0.3985;stroke-linecap:butt;stroke-linejoin:miter;stroke-miterlimit:10;stroke-dasharray:none;stroke-opacity:1"
               d="m 15.65611,41.91335 c 0,0.78283 -0.63458,1.41741 -1.41741,1.41741 -0.78283,0 -1.41743,-0.63458 -1.41743,-1.41741 0,-0.78283 0.6346,-1.41741 1.41743,-1.41741 0.78283,0 1.41741,0.63458 1.41741,1.41741 z" /></g><g
             id="g258"><path
               id="path260"
               style="fill:#000000;fill-opacity:1;fill-rule:nonzero;stroke:#000000;stroke-width:0.3985;stroke-linecap:butt;stroke-linejoin:miter;stroke-miterlimit:10;stroke-dasharray:none;stroke-opacity:1"
               d="m 36.97073,80.54591 c 0,0.78283 -0.63459,1.41742 -1.41742,1.41742 -0.78281,0 -1.41741,-0.63459 -1.41741,-1.41742 0,-0.78282 0.6346,-1.41741 1.41741,-1.41741 0.78283,0 1.41742,0.63459 1.41742,1.41741 z" /></g><g
             id="g262"><path
               id="path264"
               style="fill:#000000;fill-opacity:1;fill-rule:nonzero;stroke:#000000;stroke-width:0.3985;stroke-linecap:butt;stroke-linejoin:miter;stroke-miterlimit:10;stroke-dasharray:none;stroke-opacity:1"
               d="m 39.82806,61.85248 c 0,0.78282 -0.63458,1.41742 -1.41742,1.41742 -0.78282,0 -1.41741,-0.6346 -1.41741,-1.41742 0,-0.78282 0.63459,-1.41742 1.41741,-1.41742 0.78284,0 1.41742,0.6346 1.41742,1.41742 z" /></g><g
             id="g266"><path
               id="path268"
               style="fill:#000000;fill-opacity:1;fill-rule:nonzero;stroke:#000000;stroke-width:0.3985;stroke-linecap:butt;stroke-linejoin:miter;stroke-miterlimit:10;stroke-dasharray:none;stroke-opacity:1"
               d="m 18.00221,49.46286 c 0,0.78284 -0.6346,1.41742 -1.41741,1.41742 -0.78284,0 -1.41743,-0.63458 -1.41743,-1.41742 0,-0.78282 0.63459,-1.4174 1.41743,-1.4174 0.78281,0 1.41741,0.63458 1.41741,1.4174 z" /></g><g
             id="g270"><path
               id="path272"
               style="fill:#000000;fill-opacity:1;fill-rule:nonzero;stroke:#000000;stroke-width:0.3985;stroke-linecap:butt;stroke-linejoin:miter;stroke-miterlimit:10;stroke-dasharray:none;stroke-opacity:1"
               d="m 12.34981,75.89526 c 0,0.78283 -0.6346,1.41742 -1.41742,1.41742 -0.78282,0 -1.41742,-0.63459 -1.41742,-1.41742 0,-0.78282 0.6346,-1.41742 1.41742,-1.41742 0.78282,0 1.41742,0.6346 1.41742,1.41742 z" /></g><g
             id="g274"><path
               id="path276"
               style="fill:#000000;fill-opacity:1;fill-rule:nonzero;stroke:#000000;stroke-width:0.3985;stroke-linecap:butt;stroke-linejoin:miter;stroke-miterlimit:10;stroke-dasharray:none;stroke-opacity:1"
               d="m 60.2655,107.07562 c 0,0.78284 -0.6346,1.41742 -1.41742,1.41742 -0.78282,0 -1.41742,-0.63458 -1.41742,-1.41742 0,-0.78282 0.6346,-1.4174 1.41742,-1.4174 0.78282,0 1.41742,0.63458 1.41742,1.4174 z" /></g><g
             id="g278"><path
               id="path280"
               style="fill:#000000;fill-opacity:1;fill-rule:nonzero;stroke:#000000;stroke-width:0.3985;stroke-linecap:butt;stroke-linejoin:miter;stroke-miterlimit:10;stroke-dasharray:none;stroke-opacity:1"
               d="m 36.36473,47.75606 c 0,0.78284 -0.63458,1.41742 -1.41742,1.41742 -0.78282,0 -1.41741,-0.63458 -1.41741,-1.41742 0,-0.78282 0.63459,-1.41741 1.41741,-1.41741 0.78284,0 1.41742,0.63459 1.41742,1.41741 z" /></g><g
             id="g282"><path
               id="path284"
               style="fill:#000000;fill-opacity:1;fill-rule:nonzero;stroke:#000000;stroke-width:0.3985;stroke-linecap:butt;stroke-linejoin:miter;stroke-miterlimit:10;stroke-dasharray:none;stroke-opacity:1"
               d="m 68.28215,115.53867 c 0,0.78282 -0.63458,1.41742 -1.4174,1.41742 -0.78284,0 -1.41742,-0.6346 -1.41742,-1.41742 0,-0.78284 0.63458,-1.41742 1.41742,-1.41742 0.78282,0 1.4174,0.63458 1.4174,1.41742 z" /></g><g
             id="g286"><path
               id="path288"
               style="fill:#000000;fill-opacity:1;fill-rule:nonzero;stroke:#000000;stroke-width:0.3985;stroke-linecap:butt;stroke-linejoin:miter;stroke-miterlimit:10;stroke-dasharray:none;stroke-opacity:1"
               d="m 30.95628,29.17294 c 0,0.78282 -0.63459,1.41742 -1.41742,1.41742 -0.78282,0 -1.41742,-0.6346 -1.41742,-1.41742 0,-0.78284 0.6346,-1.41742 1.41742,-1.41742 0.78283,0 1.41742,0.63458 1.41742,1.41742 z" /></g><g
             id="g290"><path
               id="path292"
               style="fill:#000000;fill-opacity:1;fill-rule:nonzero;stroke:#000000;stroke-width:0.3985;stroke-linecap:butt;stroke-linejoin:miter;stroke-miterlimit:10;stroke-dasharray:none;stroke-opacity:1"
               d="m 48.32745,35.83533 c 0,0.78282 -0.63459,1.41742 -1.41742,1.41742 -0.78283,0 -1.41742,-0.6346 -1.41742,-1.41742 0,-0.78283 0.63459,-1.41742 1.41742,-1.41742 0.78283,0 1.41742,0.63459 1.41742,1.41742 z" /></g><g
             id="g294"><path
               id="path296"
               style="fill:#000000;fill-opacity:1;fill-rule:nonzero;stroke:#000000;stroke-width:0.3985;stroke-linecap:butt;stroke-linejoin:miter;stroke-miterlimit:10;stroke-dasharray:none;stroke-opacity:1"
               d="m 74.49902,42.17374 c 0,0.78282 -0.63459,1.41742 -1.41742,1.41742 -0.78282,0 -1.41742,-0.6346 -1.41742,-1.41742 0,-0.78284 0.6346,-1.41742 1.41742,-1.41742 0.78283,0 1.41742,0.63458 1.41742,1.41742 z" /></g><g
             id="g298"><path
               id="path300"
               style="fill:none;stroke:#ff0000;stroke-width:0.79701;stroke-linecap:butt;stroke-linejoin:miter;stroke-miterlimit:10;stroke-dasharray:none;stroke-opacity:1"
               d="m 85.76492,56.80217 c 0,1.09601 -0.88849,1.98448 -1.98448,1.98448 -1.09601,0 -1.98448,-0.88847 -1.98448,-1.98448 0,-1.09601 0.88847,-1.98448 1.98448,-1.98448 1.09599,0 1.98448,0.88847 1.98448,1.98448 z" /></g><g
             id="g302"><path
               id="path304"
               style="fill:none;stroke:#ff0000;stroke-width:0.79701;stroke-linecap:butt;stroke-linejoin:miter;stroke-miterlimit:10;stroke-dasharray:none;stroke-opacity:1"
               d="m 73.79572,120.39433 c 0,1.09601 -0.88848,1.98448 -1.98449,1.98448 -1.09599,0 -1.98448,-0.88847 -1.98448,-1.98448 0,-1.09599 0.88849,-1.98446 1.98448,-1.98446 1.09601,0 1.98449,0.88847 1.98449,1.98446 z" /></g><g
             id="g306"><path
               id="path308"
               style="fill:none;stroke:#ff0000;stroke-width:0.79701;stroke-linecap:butt;stroke-linejoin:miter;stroke-miterlimit:10;stroke-dasharray:none;stroke-opacity:1"
               d="m 2.20766,50.9469 c 0,1.09601 -0.88849,1.98448 -1.98448,1.98448 -1.096,0 -1.98447,-0.88847 -1.98447,-1.98448 0,-1.09601 0.88847,-1.98448 1.98447,-1.98448 1.09599,0 1.98448,0.88847 1.98448,1.98448 z" /></g><g
             id="g310"><path
               id="path312"
               style="fill:none;stroke:#ff0000;stroke-width:0.79701;stroke-linecap:butt;stroke-linejoin:miter;stroke-miterlimit:10;stroke-dasharray:none;stroke-opacity:1"
               d="m 15.69896,8.59322 c 0,1.09599 -0.88849,1.98448 -1.98448,1.98448 -1.09601,0 -1.98448,-0.88849 -1.98448,-1.98448 0,-1.09601 0.88847,-1.98449 1.98448,-1.98449 1.09599,0 1.98448,0.88848 1.98448,1.98449 z" /></g><g
             id="g314"><path
               id="path316"
               style="fill:#ff0000;fill-opacity:0.3;fill-rule:nonzero;stroke:#ff0000;stroke-width:0.79701;stroke-linecap:butt;stroke-linejoin:miter;stroke-miterlimit:10;stroke-dasharray:none;stroke-opacity:1"
               d="M 83.78044,56.80217 71.81123,120.39433 0.22318,50.9469 13.71448,8.59322 83.78044,56.80217" /></g><g
             id="g318"><path
               id="path320"
               style="fill:none;stroke:#0000ff;stroke-width:0.79701;stroke-linecap:butt;stroke-linejoin:miter;stroke-miterlimit:10;stroke-dasharray:none;stroke-opacity:1"
               d="m 84.85095,116.99545 c 0,1.40895 -1.14215,2.5511 -2.5511,2.5511 -1.40895,0 -2.5511,-1.14215 -2.5511,-2.5511 0,-1.40895 1.14215,-2.5511 2.5511,-2.5511 1.40895,0 2.5511,1.14215 2.5511,2.5511 z" /></g><g
             id="g322"><path
               id="path324"
               style="fill:none;stroke:#0000ff;stroke-width:0.79701;stroke-linecap:butt;stroke-linejoin:miter;stroke-miterlimit:10;stroke-dasharray:none;stroke-opacity:1"
               d="m 75.05397,36.50056 c 0,1.40896 -1.14215,2.55111 -2.5511,2.55111 -1.40895,0 -2.55112,-1.14215 -2.55112,-2.55111 0,-1.40895 1.14217,-2.5511 2.55112,-2.5511 1.40895,0 2.5511,1.14215 2.5511,2.5511 z" /></g><g
             id="g326"><path
               id="path328"
               style="fill:none;stroke:#0000ff;stroke-width:0.79701;stroke-linecap:butt;stroke-linejoin:miter;stroke-miterlimit:10;stroke-dasharray:none;stroke-opacity:1"
               d="m 16.26558,8.59322 c 0,1.40895 -1.14215,2.5511 -2.5511,2.5511 -1.40895,0 -2.55112,-1.14215 -2.55112,-2.5511 0,-1.40895 1.14217,-2.55111 2.55112,-2.55111 1.40895,0 2.5511,1.14216 2.5511,2.55111 z" /></g><g
             id="g330"><path
               id="path332"
               style="fill:none;stroke:#0000ff;stroke-width:0.79701;stroke-linecap:butt;stroke-linejoin:miter;stroke-miterlimit:10;stroke-dasharray:none;stroke-opacity:1"
               d="m 19.39023,88.95964 c 0,1.40895 -1.14217,2.5511 -2.55112,2.5511 -1.40895,0 -2.5511,-1.14215 -2.5511,-2.5511 0,-1.40895 1.14215,-2.5511 2.5511,-2.5511 1.40895,0 2.55112,1.14215 2.55112,2.5511 z" /></g><g
             id="g334"><path
               id="path336"
               style="fill:#0000ff;fill-opacity:0.2;fill-rule:nonzero;stroke:#0000ff;stroke-width:0.79701;stroke-linecap:butt;stroke-linejoin:miter;stroke-miterlimit:10;stroke-dasharray:none;stroke-opacity:1"
               d="M 83.78044,56.80217 82.29985,116.99545 71.81123,120.39433 16.83911,88.95964 0.22318,50.9469 13.71448,8.59322 l 0,0 58.78839,27.90734 11.27757,20.30161" /></g></g></g></g></g></svg>